<svg id="Layer_1" data-name="Layer 1" xmlns="http://www.w3.org/2000/svg" viewBox="0 0 648 648"><title>drug interaction</title><path d="M.08,467.92C1.66,460,3,452,4.86,444.18c7.21-30,22.09-55.83,43.89-77.64q159-159.05,318.12-318C450.16-34.13,588.22-7.69,634.43,99.13,661.1,160.78,647.66,232.05,599,280.92Q439.88,440.74,279.93,599.75c-44.74,44.25-99.53,58.34-160.1,41.45C59.42,624.36,21.42,583.61,5,523.07c-2.17-8-3.27-16.23-4.87-24.35Q.08,483.32.08,467.92ZM222,251.89c-1.25,1.12-2.38,2.06-3.41,3.09C171,302.61,122.82,349.78,75.84,398.07c-32.38,33.28-42.13,73.89-30,118.5,24.45,90.06,137.79,120.46,204.28,55,47.85-47.12,95.06-94.9,142.53-142.41,1.16-1.16,2.13-2.51,3-3.54ZM566.33,113.14c-3.31-3.46-5.12-5.56-7.14-7.44a123.25,123.25,0,0,0-171,2.81q-54.37,54.06-108.46,108.4c-1.33,1.33-2.57,2.75-3.66,3.92l37,36.88a36,36,0,0,1,3.8-5.32q50.52-50.65,101.21-101.14a127.29,127.29,0,0,1,18.57-15.7c35-23.4,72.58-28.29,112.31-13.86,4.06,1.48,6.59,1.26,9.4-2C560.39,117.29,563.25,115.61,566.33,113.14Z"/></svg>